<svg width="60" height="60" viewBox="0 0 60 60" fill="none" xmlns="http://www.w3.org/2000/svg">
<g clip-path="url(#clip0_1_90)">
<g filter="url(#filter0_d_1_90)">
<path d="M57.4784 20.1529C57.4784 23.554 57.6556 26.9692 57.4395 30.356C56.9913 37.1723 54.3183 43.1099 49.7924 48.2257C47.2417 51.1059 44.1825 53.3237 40.8027 55.134C38.546 56.3439 36.3158 57.6033 34.0715 58.8539C31.333 60.3844 28.6121 60.3861 25.8824 58.8273C22.5168 56.9001 18.9882 55.1942 15.7856 53.0243C8.22361 47.9086 3.88018 40.6902 2.66502 31.6314C2.49701 30.2948 2.41479 28.9487 2.41882 27.6015C2.39225 22.0536 2.40641 16.5074 2.40818 10.9506C2.40818 9.48746 2.91305 8.80726 4.339 8.44059C12.7618 6.27645 21.0215 3.52103 29.0567 0.194833C29.3621 0.0646478 29.691 -0.00113488 30.0229 0.00160827C30.3549 0.00435142 30.6826 0.0755553 30.9858 0.21077C37.0207 2.71091 43.185 4.88632 49.4524 6.72766C51.4416 7.31045 53.4486 7.84008 55.4502 8.38035C57.1224 8.83028 57.5936 9.42193 57.5936 11.1366V20.1547L57.4784 20.1529ZM27.188 30.3029C25.7354 28.8291 24.4051 27.4403 23.0323 26.0976C22.8362 25.9007 22.6025 25.7451 22.3451 25.6402C22.0877 25.5353 21.8119 25.4832 21.534 25.487C21.256 25.4908 20.9817 25.5504 20.7273 25.6623C20.4729 25.7742 20.2435 25.9361 20.0529 26.1384C19.6671 26.5288 19.4498 27.0549 19.4478 27.6038C19.4458 28.1527 19.6593 28.6804 20.0422 29.0736C21.9128 30.9866 23.8023 32.8761 25.7106 34.742C25.9002 34.9385 26.1276 35.0947 26.379 35.2013C26.6305 35.3078 26.9009 35.3625 27.174 35.362C27.4471 35.3615 27.7173 35.3059 27.9684 35.1984C28.2195 35.0909 28.4463 34.9339 28.6352 34.7366C32.417 30.9831 36.1918 27.2242 39.9224 23.4211C40.2908 23.0438 40.4821 22.3583 40.5051 21.8091C40.5423 20.9429 40.0162 20.307 39.1978 19.9988C38.3334 19.6711 37.5452 19.8518 36.8845 20.5107C34.2416 23.1501 31.5999 25.7918 28.9593 28.4359C28.3907 29.0116 27.8398 29.6138 27.1844 30.3082L27.188 30.3029Z" fill="#01F5AB"/>
</g>
</g>
<defs>
<filter id="filter0_d_1_90" x="-1.59717" y="0.00152588" width="63.1907" height="67.9976" filterUnits="userSpaceOnUse" color-interpolation-filters="sRGB">
<feFlood flood-opacity="0" result="BackgroundImageFix"/>
<feColorMatrix in="SourceAlpha" type="matrix" values="0 0 0 0 0 0 0 0 0 0 0 0 0 0 0 0 0 0 127 0" result="hardAlpha"/>
<feOffset dy="4"/>
<feGaussianBlur stdDeviation="2"/>
<feComposite in2="hardAlpha" operator="out"/>
<feColorMatrix type="matrix" values="0 0 0 0 0 0 0 0 0 0 0 0 0 0 0 0 0 0 0.25 0"/>
<feBlend mode="normal" in2="BackgroundImageFix" result="effect1_dropShadow_1_90"/>
<feBlend mode="normal" in="SourceGraphic" in2="effect1_dropShadow_1_90" result="shape"/>
</filter>
<clipPath id="clip0_1_90">
<rect width="55.1872" height="60" fill="white" transform="translate(2.40643)"/>
</clipPath>
</defs>
</svg>
