<svg width="68" height="68" viewBox="0 0 68 68" fill="none" xmlns="http://www.w3.org/2000/svg">
<g clip-path="url(#clip0_1_110)" filter="url(#filter0_d_1_110)">
<path d="M34.1088 0C35.6751 0.833246 37.2273 1.67746 38.7951 2.506C42.6481 4.52647 46.5047 6.53859 50.365 8.54235C50.7424 8.73813 50.8865 8.94801 50.885 9.38342C50.8693 15.6338 50.8693 21.8847 50.885 28.1362C50.885 28.57 50.7518 28.7846 50.3728 28.9819C45.057 31.7406 39.7479 34.5119 34.4456 37.2956C34.3098 37.3812 34.1526 37.4266 33.9922 37.4266C33.8317 37.4266 33.6745 37.3812 33.5387 37.2956C28.2135 34.5045 22.8882 31.725 17.563 28.9569C17.4135 28.8985 17.2874 28.7924 17.2044 28.655C17.1214 28.5177 17.0862 28.3567 17.1041 28.1972C17.1176 21.9072 17.1176 15.6171 17.1041 9.32704C17.1041 8.93078 17.2372 8.74752 17.5739 8.57366C22.8543 5.83272 28.1304 3.08292 33.4025 0.324225C33.57 0.236515 33.7157 0.114347 33.8723 0.0109745L34.1088 0ZM37.4841 26.2614C36.6665 24.6857 35.448 23.8478 33.7251 23.9496C32.8078 24.0108 31.9454 24.4085 31.3032 25.0663C30.661 25.7242 30.2841 26.5959 30.2449 27.5144C30.2045 28.4307 30.4995 29.3303 31.0746 30.0447C31.6498 30.7592 32.4657 31.2394 33.3696 31.3955C35.2099 31.7245 37.0033 30.5795 37.5985 28.7439C37.707 28.4499 37.9133 28.2022 38.1827 28.0422C39.976 27.0523 41.7851 26.0969 43.5972 25.1399C44.0044 24.9253 44.3083 24.6559 44.3083 24.161C44.3083 22.0513 44.3177 19.9431 44.3083 17.8333C44.3156 17.5948 44.2292 17.3629 44.0676 17.1872C43.906 17.0116 43.6821 16.9062 43.4437 16.8936C42.8579 16.8513 42.446 17.2914 42.4429 17.99C42.4429 19.7129 42.4429 21.4357 42.4319 23.1461C42.4319 23.3466 42.352 23.6504 42.2111 23.7287C40.6542 24.5855 39.0848 25.4093 37.4841 26.2614ZM30.5002 11.2551C31.3005 12.8213 32.5113 13.6593 34.2341 13.5653C35.1507 13.5095 36.0147 13.1181 36.661 12.4657C37.3073 11.8134 37.6907 10.9458 37.7379 10.0287C37.7851 9.10152 37.4887 8.18947 36.9056 7.46706C36.3225 6.74464 35.4934 6.26258 34.5771 6.11309C32.7211 5.81393 30.9513 6.96512 30.3765 8.8086C30.2882 9.06935 30.1114 9.29098 29.8768 9.4351C28.0641 10.4292 26.241 11.4034 24.4075 12.3577C23.8969 12.6224 23.6635 12.9842 23.6682 13.5622C23.6854 15.5153 23.6682 17.4684 23.6682 19.42C23.6682 20.1718 23.9971 20.5978 24.5751 20.6182C25.153 20.6385 25.5399 20.1906 25.5414 19.4215C25.5414 17.7221 25.5321 16.0228 25.5571 14.325C25.5606 14.2104 25.5892 14.098 25.6409 13.9957C25.6926 13.8934 25.7661 13.8037 25.8563 13.7329C27.3802 12.9028 28.9167 12.0977 30.5002 11.2551ZM43.3764 15.0016C43.6234 14.9983 43.8592 14.8978 44.0328 14.7219C44.2063 14.5461 44.3036 14.3089 44.3036 14.0618C44.3003 13.8148 44.1998 13.5789 44.0239 13.4054C43.8481 13.2319 43.6109 13.1346 43.3638 13.1346C43.1168 13.1379 42.881 13.2383 42.7074 13.4142C42.5339 13.5901 42.4366 13.8273 42.4366 14.0743C42.4399 14.3214 42.5404 14.5572 42.7163 14.7308C42.8921 14.9043 43.1293 15.0016 43.3764 15.0016ZM25.5461 23.4202C25.5376 23.1728 25.4318 22.9389 25.2517 22.7691C25.0717 22.5993 24.8319 22.5074 24.5845 22.5133C24.3374 22.5223 24.1038 22.6283 23.9344 22.8083C23.7649 22.9883 23.6733 23.2278 23.6792 23.475C23.6882 23.7218 23.7939 23.9551 23.9736 24.1245C24.1533 24.2939 24.3924 24.3858 24.6393 24.3803C24.8863 24.3717 25.12 24.2661 25.2898 24.0864C25.4595 23.9067 25.5517 23.6673 25.5461 23.4202Z" fill="#01F5AB"/>
<path d="M53.4568 37.4695C54.3527 36.9322 55.2141 36.3966 56.0959 35.9032C56.2339 35.8383 56.348 35.7318 56.4222 35.5986C56.4964 35.4654 56.5269 35.3122 56.5094 35.1608C56.4969 32.0346 56.4969 28.9088 56.5094 25.7836C56.5087 25.074 56.7394 24.3836 57.1665 23.8169C57.5935 23.2502 58.1937 22.8382 58.876 22.6433C60.2857 22.2455 61.8096 22.7843 62.5332 24.0529C62.8456 24.5901 63.0214 25.1956 63.0454 25.8165C63.0861 30.7001 63.1174 35.5852 63.0454 40.4673C63.0031 43.5622 61.4792 45.8458 58.768 47.3133C55.7138 48.9673 52.6475 50.5988 49.5693 52.2079C49.1292 52.4397 48.9757 52.695 48.9836 53.1946C49.0165 55.2448 48.9977 57.2966 48.9977 59.3484V60.0047H36.8044V59.3782C36.8044 55.5503 36.8044 51.7208 36.8044 47.8913C36.8044 44.8042 38.142 42.4501 40.7952 40.8651C42.9065 39.6037 45.0251 38.3554 47.1511 37.1202C48.7361 36.2039 50.6219 36.6362 51.6008 38.1022C52.3667 39.2472 52.1302 40.6082 50.9946 41.3914C49.8873 42.1557 48.7502 42.8808 47.6303 43.6279C47.0038 44.0477 46.8362 44.5552 47.1605 45.0376C47.4847 45.52 48.0282 45.592 48.6531 45.1942C49.5929 44.5677 50.5122 43.8942 51.4927 43.3319C53.3675 42.2685 54.6017 40.2245 53.4568 37.4695Z" fill="#01F5AB"/>
<path d="M31.1502 60H18.9851V57.4737C18.9851 56.028 18.9679 54.5824 18.9961 53.1367C19.0039 52.6919 18.8833 52.4507 18.4698 52.2345C15.3948 50.6213 12.3301 48.9887 9.27595 47.3369C6.40501 45.7941 4.92803 43.3899 4.92019 40.1227C4.90766 35.3571 4.90766 30.591 4.92019 25.8244C4.90984 25.0852 5.15143 24.3645 5.6052 23.781C6.05897 23.1974 6.69787 22.7857 7.41679 22.6136C8.85931 22.2596 10.3801 22.8798 11.0395 24.208C11.3091 24.7669 11.4535 25.3778 11.4624 25.9982C11.5047 29.007 11.4953 32.0158 11.4624 35.023C11.4417 35.2212 11.4845 35.421 11.5848 35.5933C11.685 35.7656 11.8374 35.9016 12.02 35.9815C12.8548 36.4514 13.663 36.9558 14.3553 37.3708C14.2629 38.3575 14.0561 39.2644 14.1251 40.1493C14.2222 41.4023 14.9348 42.3656 15.9795 43.0641C17.0821 43.8013 18.1884 44.5322 19.2984 45.2569C19.881 45.639 20.5013 45.5701 20.8067 45.1128C21.1199 44.6288 20.9633 44.1198 20.3368 43.6938C19.2671 42.9764 18.1879 42.2716 17.1166 41.5574C15.7743 40.663 15.541 39.1203 16.5528 37.861C17.5191 36.6597 19.2154 36.2243 20.5655 36.9855C23.0276 38.3763 25.496 39.7718 27.8595 41.3209C30.0006 42.7305 31.1111 44.8591 31.1487 47.4152C31.2176 51.5156 31.169 55.6192 31.1706 59.7212C31.1847 59.8026 31.1628 59.8778 31.1502 60Z" fill="#01F5AB"/>
<path d="M33.9663 29.5505C33.4733 29.5423 33.0033 29.3406 32.6576 28.9891C32.3118 28.6375 32.1181 28.1641 32.1182 27.671C32.1239 27.1773 32.3226 26.7055 32.6719 26.3566C33.0211 26.0077 33.493 25.8093 33.9867 25.804C34.4903 25.8094 34.9712 26.0145 35.3236 26.3743C35.6761 26.7341 35.8712 27.2191 35.8662 27.7227C35.8527 28.2157 35.6459 28.6836 35.2905 29.0256C34.9351 29.3675 34.4595 29.556 33.9663 29.5505Z" fill="#01F5AB"/>
<path d="M34.0039 7.96439C34.4965 7.96723 34.9682 8.16328 35.3176 8.51038C35.6671 8.85749 35.8663 9.3279 35.8725 9.8204C35.8681 10.3127 35.6726 10.784 35.3271 11.1347C34.9816 11.4855 34.5133 11.6881 34.0212 11.6999C33.5176 11.6991 33.0349 11.4983 32.6792 11.1418C32.3236 10.7852 32.124 10.3021 32.1244 9.79847C32.1323 9.3066 32.3342 8.83778 32.6863 8.49421C33.0384 8.15064 33.512 7.9602 34.0039 7.96439Z" fill="#01F5AB"/>
</g>
<defs>
<filter id="filter0_d_1_110" x="0.912354" y="0" width="66.1753" height="68" filterUnits="userSpaceOnUse" color-interpolation-filters="sRGB">
<feFlood flood-opacity="0" result="BackgroundImageFix"/>
<feColorMatrix in="SourceAlpha" type="matrix" values="0 0 0 0 0 0 0 0 0 0 0 0 0 0 0 0 0 0 127 0" result="hardAlpha"/>
<feOffset dy="4"/>
<feGaussianBlur stdDeviation="2"/>
<feComposite in2="hardAlpha" operator="out"/>
<feColorMatrix type="matrix" values="0 0 0 0 0 0 0 0 0 0 0 0 0 0 0 0 0 0 0.25 0"/>
<feBlend mode="normal" in2="BackgroundImageFix" result="effect1_dropShadow_1_110"/>
<feBlend mode="normal" in="SourceGraphic" in2="effect1_dropShadow_1_110" result="shape"/>
</filter>
<clipPath id="clip0_1_110">
<rect width="58.1753" height="60" fill="white" transform="translate(4.91235)"/>
</clipPath>
</defs>
</svg>
