<svg width="72" height="52" viewBox="0 0 72 52" fill="none" xmlns="http://www.w3.org/2000/svg">
<path d="M15.96 29.7392C15.96 27.3122 15.96 26.0987 15.4803 25.5375C15.0641 25.0506 14.4399 24.7925 13.8013 24.8433C13.0654 24.9019 12.2084 25.761 10.4944 27.4793L2.25426 35.7401C1.465 36.5313 1.07037 36.9269 0.922472 37.3829C0.792368 37.784 0.792368 38.216 0.922472 38.6171C1.07037 39.0731 1.465 39.4687 2.25426 40.2599L10.4944 48.5207C12.2084 50.239 13.0654 51.0981 13.8013 51.1567C14.4399 51.2075 15.0641 50.9494 15.4803 50.4625C15.96 49.9013 15.96 48.6878 15.96 46.2608V45.2C15.96 44.0799 15.96 43.5198 16.178 43.092C16.3697 42.7157 16.6757 42.4097 17.052 42.218C17.4798 42 18.0399 42 19.16 42H40.8C41.9201 42 42.4802 42 42.908 41.782C43.2843 41.5903 43.5903 41.2843 43.782 40.908C44 40.4802 44 39.9201 44 38.8V37.2C44 36.0799 44 35.5198 43.782 35.092C43.5903 34.7157 43.2843 34.4097 42.908 34.218C42.4802 34 41.9201 34 40.8 34H19.16C18.0399 34 17.4798 34 17.052 33.782C16.6757 33.5903 16.3697 33.2843 16.178 32.908C15.96 32.4802 15.96 31.9201 15.96 30.8V29.7392ZM69.7457 16.2599C70.535 15.4687 70.9296 15.0731 71.0775 14.6171C71.2076 14.216 71.2076 13.784 71.0775 13.3829C70.9296 12.9269 70.535 12.5313 69.7457 11.7401L61.5056 3.47926C59.7916 1.76099 58.9346 0.901858 58.1987 0.843289C57.5601 0.792472 56.9359 1.05059 56.5197 1.53752C56.04 2.09872 56.04 3.31221 56.04 5.73918V6.8C56.04 7.92011 56.04 8.48016 55.822 8.90798C55.6303 9.28431 55.3243 9.59027 54.948 9.78201C54.5202 10 53.9601 10 52.84 10L31.2 10C30.0799 10 29.5198 10 29.092 10.218C28.7157 10.4097 28.4097 10.7157 28.218 11.092C28 11.5198 28 12.0799 28 13.2V14.8C28 15.9201 28 16.4802 28.218 16.908C28.4097 17.2843 28.7157 17.5903 29.092 17.782C29.5198 18 30.0799 18 31.2 18H52.84C53.9601 18 54.5202 18 54.948 18.218C55.3243 18.4097 55.6303 18.7157 55.822 19.092C56.04 19.5198 56.04 20.0799 56.04 21.2V22.2608C56.04 24.6878 56.04 25.9013 56.5197 26.4625C56.9359 26.9494 57.5601 27.2075 58.1987 27.1567C58.9346 27.0981 59.7916 26.239 61.5056 24.5207L69.7457 16.2599Z" fill="#00FFB1"/>
</svg>
