<svg width="239" height="40" viewBox="0 0 239 40" fill="none" xmlns="http://www.w3.org/2000/svg">
<path d="M54.9505 17.5788H68.142C68.142 16.4695 67.7362 15.5224 66.9243 14.7376C66.1395 13.9259 65.1925 13.52 64.0831 13.52H59.0094C57.9 13.52 56.9394 13.9259 56.1275 14.7376C55.3429 15.5224 54.9505 16.4695 54.9505 17.5788ZM59.0094 30.7704C56.7365 30.7704 54.8152 29.9856 53.2457 28.4162C51.6763 26.8467 50.8915 24.9256 50.8915 22.6525V17.5788C50.8915 15.3059 51.6763 13.3847 53.2457 11.8152C54.8152 10.2458 56.7365 9.46106 59.0094 9.46106H64.0831C66.3562 9.46106 68.2772 10.2458 69.8468 11.8152C71.4162 13.3847 72.2009 15.3059 72.2009 17.5788V21.6378H54.9505V22.6525C54.9505 23.7619 55.3429 24.7225 56.1275 25.5344C56.9394 26.3191 57.9 26.7115 59.0094 26.7115H69.1568V30.7704H59.0094ZM84.4569 30.7704C82.184 30.7704 80.2628 29.9856 78.6932 28.4162C77.1239 26.8467 76.3391 24.9256 76.3391 22.6525V1.34321H80.398V9.46106H89.5306V13.52H80.398V22.6525C80.398 23.7619 80.7905 24.7225 81.5751 25.5344C82.3869 26.3191 83.3475 26.7115 84.4569 26.7115H89.5306V30.7704H84.4569ZM97.4028 22.6525C97.4028 23.7619 97.7951 24.7225 98.5798 25.5344C99.3915 26.3191 100.352 26.7115 101.462 26.7115H106.535V30.7704H101.462C99.1886 30.7704 97.2674 29.9856 95.698 28.4162C94.1285 26.8467 93.3439 24.9256 93.3439 22.6525V17.5788H110.594C110.594 16.4695 110.188 15.5224 109.376 14.7376C108.592 13.9259 107.645 13.52 106.535 13.52H96.388V9.46106H106.535C108.808 9.46106 110.73 10.2458 112.299 11.8152C113.868 13.3847 114.653 15.3059 114.653 17.5788V30.7704H110.594V21.6378H97.4028V22.6525ZM123.643 8.9334V12.9923H140.893V17.0513H140.69V22.6525C140.69 24.9256 139.906 26.8467 138.336 28.4162C136.767 29.9856 134.846 30.7704 132.573 30.7704H123.643V26.7115H132.573C133.682 26.7115 134.629 26.3191 135.414 25.5344C136.226 24.7225 136.632 23.7619 136.632 22.6525V17.0513H119.584V8.9334C119.584 6.68746 120.369 4.77977 121.938 3.21032C123.535 1.61381 125.456 0.815552 127.702 0.815552H136.632V4.87447H127.702C126.592 4.87447 125.632 5.28037 124.82 6.09215C124.035 6.87687 123.643 7.82395 123.643 8.9334ZM180.709 9.46106H185.377L176.448 30.7704H171.78L165.205 15.0624L158.629 30.7704H153.962L145.032 9.46106H149.699L156.275 25.169L162.851 9.46106H167.558L174.134 25.169L180.709 9.46106ZM190.195 22.6525C190.195 23.7619 190.588 24.7225 191.372 25.5344C192.185 26.3191 193.145 26.7115 194.254 26.7115H199.328V30.7704H194.254C191.982 30.7704 190.06 29.9856 188.491 28.4162C186.922 26.8467 186.135 24.9256 186.135 22.6525V17.5788H203.386C203.386 16.4695 202.98 15.5224 202.169 14.7376C201.385 13.9259 200.437 13.52 199.328 13.52H189.18V9.46106H199.328C201.6 9.46106 203.522 10.2458 205.091 11.8152C206.66 13.3847 207.446 15.3059 207.446 17.5788V30.7704H203.386V21.6378H190.195V22.6525ZM216.435 29.6745V38.8882H212.377V17.5788C212.377 15.3059 213.162 13.3847 214.731 11.8152C216.3 10.2458 218.222 9.46106 220.494 9.46106H225.568C227.842 9.46106 229.762 10.2458 231.331 11.8152C232.902 13.3847 233.686 15.3059 233.686 17.5788V22.6525C233.686 24.9256 232.902 26.8467 231.331 28.4162C229.762 29.9856 227.842 30.7704 225.568 30.7704H220.494C219.032 30.7704 217.68 30.4052 216.435 29.6745ZM216.435 17.5788V22.6525C216.435 23.7619 216.828 24.7225 217.612 25.5344C218.425 26.3191 219.385 26.7115 220.494 26.7115H225.568C226.677 26.7115 227.625 26.3191 228.409 25.5344C229.222 24.7225 229.626 23.7619 229.626 22.6525V17.5788C229.626 16.4695 229.222 15.5224 228.409 14.7376C227.625 13.9259 226.677 13.52 225.568 13.52H220.494C219.385 13.52 218.425 13.9259 217.612 14.7376C216.828 15.5224 216.435 16.4695 216.435 17.5788Z" fill="white"/>
<path d="M4.61542 4.86536H40.5971L26.5783 24.4917" stroke="#00F5AB" stroke-width="5.45426"/>
<path d="M43.4008 32.4358H6.95178L21.1527 12.3422" stroke="#00958C" stroke-width="5.45426"/>
</svg>
